<?xml version="1.0" encoding="utf-8"?><svg viewBox="0 0 502.66 502.66" xmlns="http://www.w3.org/2000/svg" xmlns:xlink="http://www.w3.org/1999/xlink"><style>:root>svg{display:none}:root>svg:target{display:block}</style><svg fill="none" viewBox="0 0 21 15" id="arrow" xmlns="http://www.w3.org/2000/svg"><path d="M20.633 6.644v-.001L14.1.353a1.28 1.28 0 00-1.768.003 1.182 1.182 0 00.004 1.711l4.385 4.223H1.25C.56 6.29 0 6.832 0 7.5c0 .668.56 1.21 1.25 1.21h15.472l-4.385 4.223a1.182 1.182 0 00-.004 1.71 1.28 1.28 0 001.768.005l6.531-6.29.001-.002a1.183 1.183 0 000-1.712z" fill="#5696FF"/></svg><svg fill="none" viewBox="0 0 46 46" id="facebook" xmlns="http://www.w3.org/2000/svg"><path d="M23 0C10.298 0 0 10.34 0 23.096c0 11.44 8.292 20.915 19.164 22.75V27.915h-5.548v-6.453h5.548v-4.758c0-5.52 3.358-8.529 8.263-8.529 2.349 0 4.368.176 4.954.254v5.77l-3.402.002c-2.667 0-3.181 1.272-3.181 3.14v4.118h6.363l-.83 6.453h-5.533V46C37.178 44.61 46 34.893 46 23.09 46 10.34 35.702 0 23 0z" fill="#C1D0E6"/></svg><svg fill="none" viewBox="0 0 70 70" id="header__arrow" xmlns="http://www.w3.org/2000/svg"><circle cx="35" cy="35" r="35" fill="url(#cpaint0_linear_554_22)" fill-opacity=".2"/><circle cx="35" cy="35" r="34" stroke="url(#cpaint1_linear_554_22)" stroke-opacity=".1" stroke-width="2"/><path d="M32.565 50.396a2.513 2.513 0 01-.032-.433V25.271l-.248.539a5.01 5.01 0 01-.993 1.415l-6.862 6.924a2.552 2.552 0 01-3.29.363 2.519 2.519 0 01-.322-3.756l12.41-12.521a2.466 2.466 0 013.512 0l12.41 12.52a2.52 2.52 0 01-.248 3.757 2.552 2.552 0 01-3.288-.363l-6.876-6.912a5.008 5.008 0 01-.905-1.252l-.336-.751v24.591a2.587 2.587 0 01-2.084 2.642 2.485 2.485 0 01-2.848-2.07z" fill="#fff"/><defs><linearGradient id="cpaint0_linear_554_22" x1="0" y1="0" x2="70" y2="70" gradientUnits="userSpaceOnUse"><stop stop-color="#fff"/><stop offset="1" stop-color="#fff" stop-opacity="0"/></linearGradient><linearGradient id="cpaint1_linear_554_22" x1="32.813" y1="0" x2="32.375" y2="70" gradientUnits="userSpaceOnUse"><stop stop-color="#fff"/><stop offset="1" stop-color="#fff" stop-opacity="0"/></linearGradient></defs></svg><svg viewBox="0 0 502.664 502.664" id="icon" xmlns="http://www.w3.org/2000/svg"><g fill="#010002"><path d="M153.821 358.226L0 274.337v-46.463l153.821-83.414v54.574L46.636 250.523l107.185 53.431v54.272zM180.094 387.584L282.103 115.08h32.227L212.084 387.584h-31.99zM348.843 358.226v-54.272l107.164-52.999-107.164-52.59v-53.927l153.821 83.522v46.183l-153.821 84.083z"/></g></svg><svg fill="none" viewBox="0 0 160 160" id="info__box1" xmlns="http://www.w3.org/2000/svg"><g filter="url(#efilter0_d_202_54)"><rect x="30" y="25" width="100" height="100" rx="25" fill="url(#epaint0_linear_202_54)"/></g><path d="M100.455 50h-40.91A4.55 4.55 0 0055 54.545v40.91A4.55 4.55 0 0059.545 100h40.91A4.55 4.55 0 00105 95.454V54.546A4.55 4.55 0 00100.455 50zm-30.682 4.545a1.136 1.136 0 110 2.273 1.136 1.136 0 010-2.273zm-4.546 0a1.136 1.136 0 110 2.273 1.136 1.136 0 010-2.273zm-4.545 0a1.136 1.136 0 110 2.273 1.136 1.136 0 010-2.273zm39.773 40.91h-40.91V61.363h40.91v34.09z" fill="#fff"/><path d="M64.09 88.643a2.283 2.283 0 002.28-2.28c0-.82-.459-1.508-1.111-1.91.208-3.618 2.09-10.239 12.836-10.551.403.648 1.088 1.104 1.905 1.104a2.283 2.283 0 002.28-2.28A2.283 2.283 0 0080 70.449c-.844 0-1.553.482-1.947 1.167-10.636.312-14.747 6.61-15.072 12.8-.686.393-1.17 1.103-1.17 1.948a2.283 2.283 0 002.28 2.28zM85.307 89.708a1.14 1.14 0 001.263-.362l4.203-5.255h6.273a1.138 1.138 0 00.71-2.024l-11.364-9.091a1.138 1.138 0 00-1.847.888v14.772c0 .483.305.913.762 1.072z" fill="#fff"/><defs><linearGradient id="epaint0_linear_202_54" x1="30" y1="25" x2="149.548" y2="62.228" gradientUnits="userSpaceOnUse"><stop stop-color="#5E56FF"/><stop offset="1" stop-color="#5AF"/></linearGradient><filter id="efilter0_d_202_54" x="0" y="0" width="160" height="160" filterUnits="userSpaceOnUse" color-interpolation-filters="sRGB"><feFlood flood-opacity="0" result="BackgroundImageFix"/><feColorMatrix in="SourceAlpha" values="0 0 0 0 0 0 0 0 0 0 0 0 0 0 0 0 0 0 127 0" result="hardAlpha"/><feOffset dy="5"/><feGaussianBlur stdDeviation="15"/><feColorMatrix values="0 0 0 0 0.34902 0 0 0 0 0.501961 0 0 0 0 1 0 0 0 0.25 0"/><feBlend in2="BackgroundImageFix" result="effect1_dropShadow_202_54"/><feBlend in="SourceGraphic" in2="effect1_dropShadow_202_54" result="shape"/></filter></defs></svg><svg fill="none" viewBox="0 0 160 160" id="info__box2" xmlns="http://www.w3.org/2000/svg"><g filter="url(#ffilter0_d_202_60)"><rect x="30" y="25" width="100" height="100" rx="25" fill="url(#fpaint0_linear_202_60)"/></g><path fill-rule="evenodd" clip-rule="evenodd" d="M64.454 47h31.092C97.452 47 99 48.543 99 50.438v48.124A3.447 3.447 0 0195.546 102H64.454C62.551 102 61 100.46 61 98.562V50.438C61 48.542 62.551 47 64.454 47zm31.057 44.688h.035V53.874H64.454v.034h-.034v37.813h31.09v-.034zm-15.079 7.798a2.77 2.77 0 002.776-2.762 2.77 2.77 0 00-2.776-2.763 2.77 2.77 0 00-2.776 2.763 2.77 2.77 0 002.776 2.762z" fill="#fff"/><path d="M76.513 60.75h-6.91c-.953 0-1.727.77-1.727 1.719v6.875c0 .949.774 1.719 1.727 1.719h6.91c.953 0 1.727-.77 1.727-1.72V62.47c0-.949-.774-1.719-1.727-1.719zm-1.728 6.875h-3.454v-3.438h3.454v3.438zM90.329 60.75h-6.91c-.953 0-1.726.77-1.726 1.719v6.875c0 .949.773 1.719 1.727 1.719h6.909c.953 0 1.727-.77 1.727-1.72V62.47c0-.949-.774-1.719-1.727-1.719zm-1.727 6.875h-3.455v-3.438h3.455v3.438zM76.513 74.5h-6.91c-.953 0-1.727.77-1.727 1.719v6.875c0 .948.774 1.718 1.727 1.718h6.91c.953 0 1.727-.77 1.727-1.718v-6.875c0-.95-.774-1.72-1.727-1.72zm-1.728 6.875h-3.454v-3.438h3.454v3.438zM85.147 74.5h-3.454v3.437h3.454V74.5zM88.603 77.938v3.437H85.15v3.438h5.182c.953 0 1.727-.77 1.727-1.72v-5.156h-3.455z" fill="#fff"/><defs><linearGradient id="fpaint0_linear_202_60" x1="30" y1="25" x2="130" y2="125" gradientUnits="userSpaceOnUse"><stop stop-color="#8653FF"/><stop offset="1" stop-color="#C84EFF"/></linearGradient><filter id="ffilter0_d_202_60" x="0" y="0" width="160" height="160" filterUnits="userSpaceOnUse" color-interpolation-filters="sRGB"><feFlood flood-opacity="0" result="BackgroundImageFix"/><feColorMatrix in="SourceAlpha" values="0 0 0 0 0 0 0 0 0 0 0 0 0 0 0 0 0 0 127 0" result="hardAlpha"/><feOffset dy="5"/><feGaussianBlur stdDeviation="15"/><feColorMatrix values="0 0 0 0 0.52549 0 0 0 0 0.32549 0 0 0 0 1 0 0 0 0.25 0"/><feBlend in2="BackgroundImageFix" result="effect1_dropShadow_202_60"/><feBlend in="SourceGraphic" in2="effect1_dropShadow_202_60" result="shape"/></filter></defs></svg><svg fill="none" viewBox="0 0 160 160" id="info__box3" xmlns="http://www.w3.org/2000/svg"><g filter="url(#gfilter0_d_202_83)"><rect x="30" y="25" width="100" height="100" rx="25" fill="url(#gpaint0_linear_202_83)"/></g><path d="M104.51 92.291l-9.951-9.951 7.099-4.101a1.672 1.672 0 00-.217-3.001L69.784 62.609a1.672 1.672 0 00-2.173 2.173l12.626 31.661a1.673 1.673 0 003.002.217l4.1-7.1 9.95 9.952a1.672 1.672 0 002.365 0l4.856-4.856a1.672 1.672 0 000-2.365zM62.34 54.974a1.673 1.673 0 00-2.365 2.364l3.715 3.716c.327.326.755.49 1.183.49a1.672 1.672 0 001.182-2.854l-3.715-3.717zM63.599 66.534c0-.924-.749-1.672-1.673-1.672h-5.254a1.672 1.672 0 100 3.344h5.254c.924 0 1.673-.749 1.673-1.672zM62.92 71.695l-3.715 3.716a1.672 1.672 0 002.365 2.364l3.715-3.715a1.672 1.672 0 00-2.364-2.365zM71.535 58.597c.923 0 1.672-.749 1.672-1.672V51.67a1.672 1.672 0 00-3.344 0v5.255c0 .923.748 1.672 1.672 1.672zM77.877 60.774c.428 0 .856-.164 1.183-.49l3.715-3.715a1.672 1.672 0 00-2.365-2.365l-3.715 3.715a1.672 1.672 0 001.182 2.855z" fill="#fff"/><defs><linearGradient id="gpaint0_linear_202_83" x1="30" y1="25" x2="130" y2="125" gradientUnits="userSpaceOnUse"><stop stop-color="#FB5967"/><stop offset="1" stop-color="#F9AF7C"/></linearGradient><filter id="gfilter0_d_202_83" x="0" y="0" width="160" height="160" filterUnits="userSpaceOnUse" color-interpolation-filters="sRGB"><feFlood flood-opacity="0" result="BackgroundImageFix"/><feColorMatrix in="SourceAlpha" values="0 0 0 0 0 0 0 0 0 0 0 0 0 0 0 0 0 0 127 0" result="hardAlpha"/><feOffset dy="5"/><feGaussianBlur stdDeviation="15"/><feColorMatrix values="0 0 0 0 0.984314 0 0 0 0 0.34902 0 0 0 0 0.403922 0 0 0 0.25 0"/><feBlend in2="BackgroundImageFix" result="effect1_dropShadow_202_83"/><feBlend in="SourceGraphic" in2="effect1_dropShadow_202_83" result="shape"/></filter></defs></svg><svg fill="none" viewBox="0 0 160 160" id="info__box4" xmlns="http://www.w3.org/2000/svg"><g filter="url(#hfilter0_d_202_28)"><rect x="30" y="25" width="100" height="100" rx="25" fill="url(#hpaint0_linear_202_28)"/></g><path d="M104.917 97.833h-1.084V66.417c0-.598-.485-1.084-1.083-1.084h-6.5c-.598 0-1.084.486-1.084 1.084v31.416h-4.333V79.417c0-.598-.485-1.084-1.083-1.084h-6.5c-.598 0-1.084.486-1.084 1.084v18.416h-4.333v-22.75c0-.598-.485-1.083-1.083-1.083h-6.5c-.598 0-1.084.485-1.084 1.083v22.75h-4.333V85.917c0-.598-.485-1.084-1.083-1.084h-6.5c-.598 0-1.083.486-1.083 1.084v11.916h-1.084a1.084 1.084 0 000 2.167h49.834a1.084 1.084 0 000-2.167z" fill="#fff"/><path d="M99.5 48a4.338 4.338 0 00-4.334 4.333c0 .802.234 1.543.614 2.189l-7.092 7.091A4.302 4.302 0 0086.5 61c-1.359 0-2.559.641-3.354 1.623l-5.324-1.519c0-.035.011-.067.011-.104a4.338 4.338 0 00-4.333-4.333A4.338 4.338 0 0069.166 61c0 .63.141 1.224.384 1.764l-6.77 5.401a4.272 4.272 0 00-2.28-.665 4.338 4.338 0 00-4.334 4.333 4.338 4.338 0 004.334 4.334 4.338 4.338 0 004.333-4.334c0-.76-.214-1.466-.56-2.088l6.636-5.293a4.294 4.294 0 002.591.882c1.588 0 2.966-.87 3.72-2.148l5.02 1.432c-.04.235-.073.47-.073.716a4.338 4.338 0 004.333 4.333 4.338 4.338 0 004.333-4.334c0-.801-.234-1.542-.613-2.188l7.094-7.094a4.27 4.27 0 002.186.616 4.337 4.337 0 004.333-4.334A4.337 4.337 0 0099.5 48z" fill="#fff"/><defs><linearGradient id="hpaint0_linear_202_28" x1="30" y1="25" x2="130" y2="125" gradientUnits="userSpaceOnUse"><stop stop-color="#62C993"/><stop offset="1" stop-color="#C5EF7F"/></linearGradient><filter id="hfilter0_d_202_28" x="0" y="0" width="160" height="160" filterUnits="userSpaceOnUse" color-interpolation-filters="sRGB"><feFlood flood-opacity="0" result="BackgroundImageFix"/><feColorMatrix in="SourceAlpha" values="0 0 0 0 0 0 0 0 0 0 0 0 0 0 0 0 0 0 127 0" result="hardAlpha"/><feOffset dy="5"/><feGaussianBlur stdDeviation="15"/><feColorMatrix values="0 0 0 0 0.384314 0 0 0 0 0.788235 0 0 0 0 0.576471 0 0 0 0.25 0"/><feBlend in2="BackgroundImageFix" result="effect1_dropShadow_202_28"/><feBlend in="SourceGraphic" in2="effect1_dropShadow_202_28" result="shape"/></filter></defs></svg><svg fill="none" viewBox="0 0 160 160" id="info__box5" xmlns="http://www.w3.org/2000/svg"><g filter="url(#ifilter0_d_202_37)"><rect x="30" y="25" width="100" height="100" rx="25" fill="url(#ipaint0_linear_202_37)"/></g><path d="M71.108 95.4c1.192 2.706 3.891 4.6 7.024 4.6 3.132 0 5.83-1.894 7.023-4.6H71.108zM78.131 53.872a17.2 17.2 0 015.894 1.037v-.228c0-3.133-2.538-5.681-5.659-5.681h-.469c-3.12 0-5.659 2.548-5.659 5.681v.225a17.234 17.234 0 015.893-1.034z" fill="#fff"/><path fill-rule="evenodd" clip-rule="evenodd" d="M92.76 76.723c-6.4-.303-11.497-5.59-11.497-12.065 0-2.524.774-4.867 2.098-6.805a14.272 14.272 0 00-5.23-.987c-7.936 0-14.393 6.481-14.393 14.449 0 4.416-.434 10.601-2.504 14.992-1.127 2.391-2.253 3.182-2.403 3.279-.63.292-.94.968-.796 1.652.147.691.791 1.168 1.495 1.168h37.203c.704 0 1.349-.477 1.495-1.168.145-.684-.166-1.36-.796-1.652-.15-.097-1.275-.888-2.403-3.279-1.309-2.777-1.964-6.273-2.269-9.584z" fill="#fff"/><circle cx="93.342" cy="64.658" r="8.5" fill="#fff"/><defs><linearGradient id="ipaint0_linear_202_37" x1="30" y1="25" x2="130" y2="125" gradientUnits="userSpaceOnUse"><stop stop-color="#FBA24E"/><stop offset="1" stop-color="#FEE291"/></linearGradient><filter id="ifilter0_d_202_37" x="0" y="0" width="160" height="160" filterUnits="userSpaceOnUse" color-interpolation-filters="sRGB"><feFlood flood-opacity="0" result="BackgroundImageFix"/><feColorMatrix in="SourceAlpha" values="0 0 0 0 0 0 0 0 0 0 0 0 0 0 0 0 0 0 127 0" result="hardAlpha"/><feOffset dy="5"/><feGaussianBlur stdDeviation="15"/><feColorMatrix values="0 0 0 0 0.984314 0 0 0 0 0.635294 0 0 0 0 0.305882 0 0 0 0.25 0"/><feBlend in2="BackgroundImageFix" result="effect1_dropShadow_202_37"/><feBlend in="SourceGraphic" in2="effect1_dropShadow_202_37" result="shape"/></filter></defs></svg><svg fill="none" viewBox="0 0 160 160" id="info__box6" xmlns="http://www.w3.org/2000/svg"><g filter="url(#jfilter0_d_202_46)"><rect x="30" y="25" width="100" height="100" rx="25" fill="url(#jpaint0_linear_202_46)"/></g><path d="M92.516 96c-.6 0-1.202-.144-1.757-.436l-10.33-5.435a.922.922 0 00-.858 0l-10.33 5.435a3.747 3.747 0 01-3.929-.259 3.694 3.694 0 01-1.522-3.666l1.972-11.51a.975.975 0 00-.277-.864l-8.358-8.151a3.693 3.693 0 01-.933-3.839 3.726 3.726 0 013.018-2.517l11.549-1.68a.94.94 0 00.706-.518l5.165-10.472A3.728 3.728 0 0180 50c1.442 0 2.733.8 3.368 2.088l5.165 10.472c.138.28.403.475.706.519l11.549 1.68a3.725 3.725 0 013.018 2.516 3.693 3.693 0 01-.933 3.838l-8.358 8.152a.975.975 0 00-.277.863l1.972 11.51a3.695 3.695 0 01-1.522 3.667c-.65.46-1.41.695-2.172.695z" fill="#fff"/><defs><linearGradient id="jpaint0_linear_202_46" x1="30" y1="25" x2="130" y2="125" gradientUnits="userSpaceOnUse"><stop stop-color="#DB2DA7"/><stop offset="1" stop-color="#F483AA"/></linearGradient><filter id="jfilter0_d_202_46" x="0" y="0" width="160" height="160" filterUnits="userSpaceOnUse" color-interpolation-filters="sRGB"><feFlood flood-opacity="0" result="BackgroundImageFix"/><feColorMatrix in="SourceAlpha" values="0 0 0 0 0 0 0 0 0 0 0 0 0 0 0 0 0 0 127 0" result="hardAlpha"/><feOffset dy="5"/><feGaussianBlur stdDeviation="15"/><feColorMatrix values="0 0 0 0 0.858824 0 0 0 0 0.176471 0 0 0 0 0.654902 0 0 0 0.25 0"/><feBlend in2="BackgroundImageFix" result="effect1_dropShadow_202_46"/><feBlend in="SourceGraphic" in2="effect1_dropShadow_202_46" result="shape"/></filter></defs></svg><svg fill="none" viewBox="0 0 47 46" id="instagram" xmlns="http://www.w3.org/2000/svg"><path fill-rule="evenodd" clip-rule="evenodd" d="M46.858 13.517c-.112-2.448-.5-4.12-1.07-5.583a11.272 11.272 0 00-2.652-4.074 11.275 11.275 0 00-4.074-2.653C37.6.639 35.927.25 33.48.139 31.026.027 30.243 0 23.996 0c-6.246 0-7.03.027-9.482.138-2.449.112-4.12.501-5.584 1.07A11.272 11.272 0 004.857 3.86a11.274 11.274 0 00-2.654 4.074c-.568 1.463-.957 3.135-1.068 5.583C1.023 15.97.996 16.753.996 23s.027 7.03.14 9.483c.11 2.448.5 4.12 1.068 5.583a11.272 11.272 0 002.653 4.073 11.27 11.27 0 004.074 2.653c1.463.57 3.135.958 5.583 1.07 2.453.112 3.236.138 9.483.138 6.246 0 7.03-.026 9.482-.138 2.449-.112 4.12-.5 5.583-1.07a11.759 11.759 0 006.727-6.726c.569-1.463.957-3.135 1.07-5.583.11-2.453.137-3.236.137-9.483s-.026-7.03-.138-9.483zm-4.14 18.777c-.102 2.243-.477 3.46-.792 4.271a7.617 7.617 0 01-4.365 4.366c-.81.314-2.028.69-4.27.791-2.425.111-3.153.134-9.295.134-6.142 0-6.869-.023-9.294-.134-2.242-.102-3.46-.477-4.27-.791a7.128 7.128 0 01-2.645-1.721 7.125 7.125 0 01-1.721-2.645c-.315-.81-.69-2.028-.792-4.27-.11-2.426-.134-3.153-.134-9.295 0-6.141.024-6.868.134-9.294.103-2.242.477-3.46.792-4.27a7.13 7.13 0 011.72-2.645 7.121 7.121 0 012.646-1.72c.81-.316 2.028-.69 4.27-.793 2.425-.11 3.153-.134 9.294-.134s6.869.024 9.294.134c2.243.103 3.46.477 4.271.792a7.132 7.132 0 012.645 1.72 7.121 7.121 0 011.72 2.645c.315.81.69 2.029.792 4.271.11 2.425.134 3.153.134 9.294 0 6.142-.023 6.87-.134 9.294zM23.996 11.19c-6.523 0-11.81 5.288-11.81 11.811s5.287 11.81 11.81 11.81c6.523 0 11.811-5.287 11.811-11.81 0-6.523-5.288-11.811-11.811-11.811zm0 19.478a7.667 7.667 0 110-15.334 7.667 7.667 0 010 15.334zm12.278-17.184a2.76 2.76 0 100-5.52 2.76 2.76 0 000 5.52z" fill="#C1D0E6"/></svg><svg fill="none" viewBox="0 0 26 26" id="list__icon" xmlns="http://www.w3.org/2000/svg"><circle cx="13" cy="13" r="11" fill="#fff"/><path d="M13 0C5.832 0 0 5.832 0 13s5.832 13 13 13 13-5.832 13-13S20.168 0 13 0zm7.266 9.579l-8.309 8.243a1.278 1.278 0 01-1.792.033l-4.398-4.008a1.321 1.321 0 01-.098-1.824 1.289 1.289 0 011.825-.066l3.486 3.193 7.428-7.428a1.298 1.298 0 011.858 0 1.298 1.298 0 010 1.857z" fill="#62CF86"/></svg><svg fill="none" viewBox="0 0 46 46" id="telegram" xmlns="http://www.w3.org/2000/svg"><path fill-rule="evenodd" clip-rule="evenodd" d="M46 23c0 12.703-10.297 23-23 23S0 35.703 0 23 10.297 0 23 0s23 10.297 23 23zm-22.176-6.02c-2.237.93-6.708 2.856-13.413 5.777-1.089.433-1.659.857-1.711 1.27-.088.7.789.976 1.982 1.352.163.05.331.104.503.16 1.175.382 2.755.828 3.576.846.745.016 1.576-.291 2.494-.921 6.265-4.23 9.498-6.367 9.702-6.413.143-.032.341-.073.476.046.134.12.121.346.107.407-.087.37-3.528 3.569-5.308 5.224-.555.516-.95.882-1.03.966-.18.187-.364.365-.54.535-1.091 1.052-1.91 1.84.045 3.128.94.62 1.69 1.13 2.44 1.642.82.557 1.636 1.113 2.693 1.806.269.176.526.36.776.538.953.68 1.81 1.29 2.867 1.193.615-.057 1.25-.635 1.572-2.358.762-4.074 2.26-12.9 2.606-16.536a4.054 4.054 0 00-.039-.906c-.03-.179-.094-.434-.327-.623-.276-.223-.7-.27-.891-.267-.865.015-2.193.477-8.58 3.134z" fill="#C1D0E6"/></svg><svg fill="none" viewBox="0 0 46 37" id="twiter" xmlns="http://www.w3.org/2000/svg"><path d="M14.467 37c17.36 0 26.852-14.234 26.852-26.576 0-.405-.008-.807-.027-1.208A19.093 19.093 0 0046 4.38a18.979 18.979 0 01-5.42 1.47A9.392 9.392 0 0044.73.684a19.055 19.055 0 01-5.993 2.267A9.473 9.473 0 0031.848 0c-5.211 0-9.438 4.183-9.438 9.34 0 .732.083 1.445.245 2.13A26.89 26.89 0 013.2 1.71a9.245 9.245 0 00-1.278 4.695c0 3.24 1.667 6.101 4.2 7.775a9.44 9.44 0 01-4.274-1.168c-.002.039-.002.077-.002.119 0 4.524 3.253 8.3 7.572 9.156a9.56 9.56 0 01-4.262.16c1.201 3.712 4.685 6.412 8.816 6.488a19.06 19.06 0 01-11.722 3.998c-.76 0-1.512-.043-2.251-.129A26.919 26.919 0 0014.467 37" fill="#C1D0E6"/></svg><svg fill="none" viewBox="0 0 46 46" id="vk" xmlns="http://www.w3.org/2000/svg"><path fill-rule="evenodd" clip-rule="evenodd" d="M3.228 3.228C0 6.456 0 11.65 0 22.042v1.916c0 10.39 0 15.586 3.228 18.814C6.456 46 11.65 46 22.042 46h1.916c10.39 0 15.586 0 18.814-3.228C46 39.544 46 34.349 46 23.958v-1.916c0-10.39 0-15.586-3.228-18.814C39.544 0 34.349 0 23.958 0h-1.916C11.652 0 6.456 0 3.228 3.228zm5.876 11.147h3.355c.858 0 1.18.375 1.502 1.304 1.64 4.779 4.407 8.955 5.545 8.955.426 0 .622-.197.622-1.28v-4.939c-.077-1.406-.569-2.014-.933-2.464-.224-.278-.4-.496-.4-.805 0-.375.32-.771.853-.771h5.272c.711 0 .959.38.959 1.233v6.645c0 .71.309.96.522.96.426 0 .782-.25 1.564-1.031 2.417-2.7 4.123-6.858 4.123-6.858.213-.498.606-.949 1.46-.949h3.354c1.015 0 1.228.522 1.015 1.233-.427 1.954-4.514 7.711-4.514 7.711-.355.569-.498.853 0 1.492.175.246.549.612.977 1.03.44.432.937.918 1.333 1.387 1.441 1.62 2.527 2.988 2.83 3.93.276.946-.203 1.425-1.161 1.425h-3.355c-.899 0-1.351-.503-2.33-1.59a41.237 41.237 0 00-1.6-1.704c-1.99-1.919-2.843-2.168-3.34-2.168-.676 0-.878.192-.878 1.15v3.008c0 .825-.264 1.304-2.396 1.304-3.555 0-7.46-2.157-10.233-6.137-4.159-5.828-5.296-10.234-5.296-11.122 0-.498.192-.949 1.15-.949z" fill="#C1D0E6"/></svg></svg>