<?xml version="1.0" encoding="utf-8"?><svg viewBox="0 0 502.66 502.66" xmlns="http://www.w3.org/2000/svg" xmlns:xlink="http://www.w3.org/1999/xlink"><style>:root>svg{display:none}:root>svg:target{display:block}</style><svg fill="none" viewBox="0 0 70 70" id="header__arrow" xmlns="http://www.w3.org/2000/svg"><circle cx="35" cy="35" r="35" fill="url(#apaint0_linear_554_22)" fill-opacity=".2"/><circle cx="35" cy="35" r="34" stroke="url(#apaint1_linear_554_22)" stroke-opacity=".1" stroke-width="2"/><path d="M32.565 50.396a2.513 2.513 0 01-.032-.433V25.271l-.248.539a5.01 5.01 0 01-.993 1.415l-6.862 6.924a2.552 2.552 0 01-3.29.363 2.519 2.519 0 01-.322-3.756l12.41-12.521a2.466 2.466 0 013.512 0l12.41 12.52a2.52 2.52 0 01-.248 3.757 2.552 2.552 0 01-3.288-.363l-6.876-6.912a5.008 5.008 0 01-.905-1.252l-.336-.751v24.591a2.587 2.587 0 01-2.084 2.642 2.485 2.485 0 01-2.848-2.07z" fill="#fff"/><defs><linearGradient id="apaint0_linear_554_22" x1="0" y1="0" x2="70" y2="70" gradientUnits="userSpaceOnUse"><stop stop-color="#fff"/><stop offset="1" stop-color="#fff" stop-opacity="0"/></linearGradient><linearGradient id="apaint1_linear_554_22" x1="32.813" y1="0" x2="32.375" y2="70" gradientUnits="userSpaceOnUse"><stop stop-color="#fff"/><stop offset="1" stop-color="#fff" stop-opacity="0"/></linearGradient></defs></svg><svg viewBox="0 0 502.664 502.664" id="icon" xmlns="http://www.w3.org/2000/svg"><g fill="#010002"><path d="M153.821 358.226L0 274.337v-46.463l153.821-83.414v54.574L46.636 250.523l107.185 53.431v54.272zM180.094 387.584L282.103 115.08h32.227L212.084 387.584h-31.99zM348.843 358.226v-54.272l107.164-52.999-107.164-52.59v-53.927l153.821 83.522v46.183l-153.821 84.083z"/></g></svg><svg fill="none" viewBox="0 0 26 26" id="list__icon" xmlns="http://www.w3.org/2000/svg"><circle cx="13" cy="13" r="11" fill="#fff"/><path d="M13 0C5.832 0 0 5.832 0 13s5.832 13 13 13 13-5.832 13-13S20.168 0 13 0zm7.266 9.579l-8.309 8.243a1.278 1.278 0 01-1.792.033l-4.398-4.008a1.321 1.321 0 01-.098-1.824 1.289 1.289 0 011.825-.066l3.486 3.193 7.428-7.428a1.298 1.298 0 011.858 0 1.298 1.298 0 010 1.857z" fill="#62CF86"/></svg></svg>